<?xml version="1.0" encoding="UTF-8"?>
<svg xmlns="http://www.w3.org/2000/svg" viewBox="0 0 1200 275.82">
<defs><style>.cls-1{fill:#67b24f;}.cls-2{fill:#00365f;}</style></defs>
<g>
    <path class="cls-2" d="M385.05,61.48h18.71v133.01h76.43v17.57h-95.14V61.48Z"/>
    <path class="cls-2" d="M510.23,105.62c9.05-7.68,20.95-11.52,35.7-11.52,33.92,0,50.88,14.98,50.88,44.95v47.91c0,2.59.46,4.38,1.37,5.36.91.99,2.43,1.49,4.56,1.49h4.57v18.25h-10.27c-5.48,0-9.78-1.79-12.89-5.36-3.12-3.57-4.68-8.18-4.68-13.81v-7.75h-2.05l-.45,4.33c-1.07,7.61-5.63,13.66-13.69,18.14-8.06,4.49-17.34,6.73-27.84,6.73-12.17,0-22.05-3.08-29.66-9.24-7.61-6.16-11.41-14.64-11.41-25.44,0-11.41,4.22-19.77,12.66-25.1,8.44-5.32,19.81-8.13,34.11-8.44,13.54-.45,23.19-1.18,28.98-2.17,5.77-.98,8.67-3.23,8.67-6.73,0-8.21-2.67-14.72-7.99-19.51-5.32-4.79-13.31-7.19-23.95-7.19-19.93,0-30.8,9.12-32.63,27.37h-18.25c.46-13.84,5.2-24.6,14.26-32.28ZM519.36,192.89c4.64,3.35,10.76,5.02,18.37,5.02,6.85,0,13.42-1.14,19.74-3.42,6.31-2.28,11.44-5.55,15.4-9.81,3.95-4.25,5.94-9.2,5.94-14.83v-22.58h-1.83l-.23,2.51c-.61,2.74-2.32,4.95-5.14,6.62-2.82,1.68-6.42,2.66-10.84,2.96-2.89.31-8.37.84-16.43,1.6l-8.67.69c-15.51,1.37-23.27,7.23-23.27,17.57,0,5.78,2.32,10.34,6.96,13.68Z"/>
    <path class="cls-2" d="M706.79,61.48h18.71v133.01h76.43v17.57h-95.14V61.48Z"/>
    <path class="cls-2" d="M834.6,61.48v150.58h-18.48V61.48h18.48Z"/>
    <path class="cls-2" d="M948.71,198.26c-10.49,10.27-24.56,15.4-42.21,15.4-11.41,0-21.45-2.28-30.12-6.85-8.66-4.56-15.44-11.33-20.3-20.31-4.87-8.97-7.3-19.85-7.3-32.62,0-19.17,5.29-33.92,15.86-44.26,10.57-10.34,24.53-15.52,41.86-15.52s32.1,5.25,42.44,15.74,15.52,25.18,15.52,44.03-5.25,34.11-15.74,44.38ZM935.6,122.28c-6.93-7.53-16.62-11.29-29.09-11.29s-21.75,3.84-28.74,11.52c-7,7.68-10.5,18.14-10.5,31.37s3.34,24.41,10.04,31.71c6.69,7.3,16.43,10.95,29.2,10.95s22.36-3.68,29.21-11.07c6.85-7.37,10.27-17.9,10.27-31.6s-3.46-24.07-10.38-31.6Z"/>
    <path class="cls-2" d="M1044.58,116.57c-5.32-4.02-12.7-6.04-22.13-6.04-7.91,0-14.18,1.52-18.82,4.56-4.64,3.05-6.96,7.3-6.96,12.77,0,4.87,1.71,8.52,5.13,10.95s9.47,4.41,18.14,5.93l15.97,2.74c6.7,1.22,12.63,2.74,17.8,4.57,5.17,1.83,9.65,4.98,13.46,9.47,3.8,4.49,5.7,10.68,5.7,18.59,0,11.1-4.18,19.59-12.55,25.44-8.37,5.86-19.32,8.79-32.86,8.79-15.21,0-27.42-3.61-36.61-10.84-9.2-7.22-14.03-17.08-14.49-29.55h18.71c.3,7.45,3.5,13.31,9.58,17.56,6.08,4.26,13.99,6.39,23.73,6.39,8.36,0,14.87-1.52,19.51-4.56,4.64-3.04,6.96-7.38,6.96-13,0-4.72-1.68-8.33-5.02-10.84-3.35-2.51-9.43-4.52-18.25-6.05l-17.34-3.19c-11.26-1.97-20-5.25-26.24-9.81-6.24-4.57-9.35-12.01-9.35-22.36,0-11.1,4.14-19.54,12.43-25.33,8.29-5.78,19.12-8.67,32.51-8.67,14.9,0,26.5,3.54,34.79,10.61,8.29,7.07,12.74,16.77,13.35,29.09h-18.71c-.3-7.45-3.12-13.2-8.44-17.23Z"/>
    <path class="cls-2" d="M1102.92,105.62c9.05-7.68,20.95-11.52,35.7-11.52,33.92,0,50.88,14.98,50.88,44.95v47.91c0,2.59.46,4.38,1.37,5.36.91.99,2.43,1.49,4.56,1.49h4.57v18.25h-10.27c-5.48,0-9.78-1.79-12.89-5.36-3.12-3.57-4.68-8.18-4.68-13.81v-7.75h-2.05l-.45,4.33c-1.07,7.61-5.63,13.66-13.69,18.14-8.06,4.49-17.34,6.73-27.84,6.73-12.17,0-22.05-3.08-29.66-9.24-7.61-6.16-11.41-14.64-11.41-25.44,0-11.41,4.22-19.77,12.66-25.1,8.44-5.32,19.81-8.13,34.11-8.44,13.54-.45,23.19-1.18,28.98-2.17,5.77-.98,8.67-3.23,8.67-6.73,0-8.21-2.67-14.72-7.99-19.51-5.32-4.79-13.31-7.19-23.95-7.19-19.93,0-30.8,9.12-32.63,27.37h-18.25c.46-13.84,5.2-24.6,14.26-32.28ZM1112.04,192.89c4.64,3.35,10.76,5.02,18.37,5.02,6.85,0,13.42-1.14,19.74-3.42,6.31-2.28,11.44-5.55,15.4-9.81,3.95-4.25,5.94-9.2,5.94-14.83v-22.58h-1.83l-.23,2.51c-.61,2.74-2.32,4.95-5.14,6.62-2.82,1.68-6.42,2.66-10.84,2.96-2.89.31-8.37.84-16.43,1.6l-8.67.69c-15.51,1.37-23.27,7.23-23.27,17.57,0,5.78,2.32,10.34,6.96,13.68Z"/>
  </g><g>
    <path class="cls-1" d="M244.29,252.61c-6.01-8.29-11.97-16.62-17.95-24.91-5.98-8.3-11.96-16.61-18.02-24.81-4.51-6.33-9.09-12.56-13.58-18.87-4.5-6.32-9.02-12.58-13.57-18.86-6.25-8.64-14.86-13.29-23.55-13.93-.61-.04-1.23-.03-1.85.01-.69-.07-1.38-.11-2.05-.07-8.7.5-17.38,5.01-23.78,13.54-4.65,6.2-9.28,12.39-13.89,18.63-4.6,6.24-9.28,12.39-13.9,18.64-6.19,8.11-12.32,16.31-18.43,24.51-6.11,8.19-12.22,16.42-18.36,24.61-1.8,2.39-1.74,6.11.22,8.34,3.92,4.48,7.91,9.05,11.83,13.52,1.96,2.24,5.04,2.11,6.83-.28,6.11-8.16,12.23-16.32,18.34-24.43,6.13-8.13,12.16-16.33,18.32-24.41-.01-.15.07-.22.13-.28,4.04-5.43,8.13-10.83,12.21-16.21,4.09-5.4,8.05-10.9,12.13-16.3,2.2-2.92,5.07-4.65,8.04-5.18,4.28-.71,8.79,1.12,11.88,5.37,3.99,5.47,7.86,11.04,11.85,16.5,3.98,5.45,7.98,10.92,11.93,16.42.07.06.14.13.13.28,6.02,8.18,11.92,16.48,17.91,24.71,5.97,8.21,11.96,16.47,17.93,24.73,1.75,2.42,4.83,2.6,6.82.4,3.99-4.41,8.06-8.91,12.06-13.32,2-2.21,2.12-5.92.36-8.34Z"/>
    <path class="cls-1" d="M12.8,158.29c10.19-1.05,20.38-2.06,30.55-3.09,10.17-1.03,20.36-2.06,30.5-3.2,7.73-.74,15.42-1.59,23.14-2.33,7.72-.74,15.41-1.52,23.12-2.32,10.61-1.1,18.94-6.23,23.84-13.43.34-.5.64-1.05.91-1.61.41-.56.79-1.14,1.09-1.74,3.92-7.78,4.36-17.56.17-27.36-3.04-7.13-6.09-14.24-9.19-21.34-3.1-7.11-6.09-14.23-9.2-21.36-3.92-9.42-7.97-18.82-12.01-28.22-4.04-9.39-8.11-18.79-12.13-28.21-1.17-2.75-4.42-4.56-7.34-3.98-5.84,1.15-11.79,2.33-17.63,3.49-2.92.58-4.35,3.31-3.17,6.06,4.01,9.37,8.02,18.75,11.99,28.1,3.98,9.37,8.06,18.7,11.98,28.07.13.07.15.17.17.25,2.68,6.22,5.32,12.46,7.94,18.68,2.63,6.24,5.42,12.42,8.06,18.66,1.42,3.37,1.49,6.71.46,9.55-1.53,4.07-5.36,7.05-10.59,7.61-6.73.72-13.49,1.28-20.22,2.01-6.71.73-13.44,1.45-20.18,2.13-.09.03-.18.06-.31-.03-10.09,1.13-20.23,2.08-30.36,3.15-10.1,1.07-20.24,2.12-30.39,3.16-2.97.31-4.67,2.88-3.76,5.71,1.82,5.66,3.68,11.44,5.51,17.1.91,2.83,4.07,4.79,7.04,4.48Z"/>
    <path class="cls-1" d="M210.24,4.97c-4.18,9.35-8.4,18.68-12.6,28-4.2,9.32-8.4,18.66-12.48,28.01-3.23,7.07-6.33,14.15-9.55,21.2-3.22,7.05-6.39,14.11-9.55,21.19-4.35,9.73-4.08,19.52-.29,27.36.26.55.59,1.08.94,1.6.28.64.59,1.25.96,1.81,4.78,7.28,13.03,12.55,23.61,13.83,7.7.93,15.37,1.85,23.08,2.71,7.71.86,15.37,1.84,23.09,2.71,10.12,1.31,20.29,2.51,30.44,3.71,10.15,1.2,20.33,2.38,30.49,3.6,2.97.36,6.16-1.55,7.12-4.36,1.92-5.63,3.88-11.38,5.8-17.01.96-2.82-.69-5.42-3.66-5.77-10.12-1.21-20.25-2.43-30.33-3.67-10.11-1.24-20.23-2.37-30.3-3.66-.12.08-.22.05-.31.02-6.73-.78-13.45-1.63-20.14-2.46-6.72-.84-13.46-1.52-20.18-2.35-3.63-.45-6.56-2.06-8.5-4.38-2.76-3.36-3.42-8.17-1.29-12.97,2.74-6.19,5.63-12.32,8.37-18.52,2.73-6.17,5.46-12.37,8.25-18.54.02-.09.04-.19.18-.25,4.07-9.3,8.31-18.56,12.45-27.86,4.13-9.28,8.29-18.59,12.46-27.89,1.22-2.73-.16-5.48-3.07-6.11-5.82-1.25-11.75-2.53-17.57-3.78-2.91-.63-6.18,1.12-7.4,3.86Z"/>
  </g>
</svg>
